<?xml version="1.0" standalone="no"?>
<!DOCTYPE svg PUBLIC "-//W3C//DTD SVG 1.1//EN" "http://www.w3.org/Graphics/SVG/1.1/DTD/svg11.dtd" >
<svg xmlns="http://www.w3.org/2000/svg" xmlns:xlink="http://www.w3.org/1999/xlink" version="1.1">
<metadata>
Created by FontForge 20170924 at Thu Apr 25 02:45:49 2019
 By www-data
</metadata>
<defs>
<font id="KohneMakinaRegular" horiz-adv-x="948" >
  <font-face 
    font-family="Kohne Makina"
    font-weight="400"
    font-stretch="normal"
    units-per-em="2048"
    panose-1="0 0 0 0 0 0 0 0 0 0"
    ascent="1638"
    descent="-410"
    x-height="1431"
    cap-height="1432"
    bbox="-61 -307 1434 1767"
    underline-thickness="102"
    underline-position="-714"
    unicode-range="U+000A-25FC"
  />
<missing-glyph horiz-adv-x="748" 
d="M68 0v1365h544v-1365h-544zM136 68h408v1229h-408v-1229z" />
    <glyph glyph-name=".notdef" horiz-adv-x="748" 
d="M68 0v1365h544v-1365h-544zM136 68h408v1229h-408v-1229z" />
    <glyph glyph-name="glyph1" horiz-adv-x="1222" 
 />
    <glyph glyph-name="glyph1" horiz-adv-x="1222" 
 />
    <glyph glyph-name="glyph2" horiz-adv-x="682" 
 />
    <glyph glyph-name="uni000A" unicode="&#xa;" horiz-adv-x="1222" 
 />
    <glyph glyph-name="uni000D" unicode="&#xd;" horiz-adv-x="1222" 
 />
    <glyph glyph-name="space" unicode=" " horiz-adv-x="512" 
 />
    <glyph glyph-name="comma" unicode="," horiz-adv-x="436" 
d="M105 131q12 50 60 75t96 6q50 -20 65.5 -73t-9.5 -100q-25 -52 -74 -81.5t-107 -29.5q-2 0 -3 3t1 4q43 35 58 57q-46 11 -71.5 52t-15.5 87z" />
    <glyph glyph-name="period" unicode="." horiz-adv-x="436" 
d="M102 115v2q0 48 34 81.5t82 33.5t81.5 -33.5t33.5 -81.5v-2q0 -48 -33.5 -81.5t-81.5 -33.5t-82 33.5t-34 81.5z" />
    <glyph glyph-name="colon" unicode=":" horiz-adv-x="438" 
d="M102 115q0 48 34 82t82 34h1q48 0 82 -34t34 -82t-34 -81.5t-82 -33.5h-1q-48 0 -82 33.5t-34 81.5zM102 502q0 48 34 82t82 34h1q48 0 82 -34t34 -82t-34 -81.5t-82 -33.5h-1q-48 0 -82 33.5t-34 81.5z" />
    <glyph glyph-name="A" unicode="A" horiz-adv-x="1067" 
d="M107 146l329 1201q11 38 42 61.5t70 23.5h1q39 -1 70 -25t41 -62l301 -1201q4 -15 4 -30q-1 -30 -17 -57q-24 -41 -71 -53q-15 -4 -30 -4q-30 0 -57 16q-41 24 -53 71l-64 255h-273l-71 -257q-10 -38 -41 -61.5t-70 -23.5q-18 0 -31 4q-45 13 -69 54q-15 26 -16 55
q0 16 5 33zM463 573h152l-72 289z" />
    <glyph glyph-name="A" unicode="&#xc3;" horiz-adv-x="1067" 
d="M107 146l329 1201q11 38 42 61.5t70 23.5h1q39 -1 70 -25t41 -62l301 -1201q4 -15 4 -30q-1 -30 -17 -57q-24 -41 -71 -53q-15 -4 -30 -4q-30 0 -57 16q-41 24 -53 71l-64 255h-273l-71 -257q-10 -38 -41 -61.5t-70 -23.5q-18 0 -31 4q-45 13 -69 54q-15 26 -16 55
q0 16 5 33zM463 573h152l-72 289z" />
    <glyph glyph-name="A" unicode="&#xc2;" horiz-adv-x="1067" 
d="M107 146l329 1201q11 38 42 61.5t70 23.5h1q39 -1 70 -25t41 -62l301 -1201q4 -15 4 -30q-1 -30 -17 -57q-24 -41 -71 -53q-15 -4 -30 -4q-30 0 -57 16q-41 24 -53 71l-64 255h-273l-71 -257q-10 -38 -41 -61.5t-70 -23.5q-18 0 -31 4q-45 13 -69 54q-15 26 -16 55
q0 16 5 33zM463 573h152l-72 289z" />
    <glyph glyph-name="A" unicode="&#xc1;" horiz-adv-x="1067" 
d="M107 146l329 1201q11 38 42 61.5t70 23.5h1q39 -1 70 -25t41 -62l301 -1201q4 -15 4 -30q-1 -30 -17 -57q-24 -41 -71 -53q-15 -4 -30 -4q-30 0 -57 16q-41 24 -53 71l-64 255h-273l-71 -257q-10 -38 -41 -61.5t-70 -23.5q-18 0 -31 4q-45 13 -69 54q-15 26 -16 55
q0 16 5 33zM463 573h152l-72 289z" />
    <glyph glyph-name="A" unicode="&#xc0;" horiz-adv-x="1067" 
d="M107 146l329 1201q11 38 42 61.5t70 23.5h1q39 -1 70 -25t41 -62l301 -1201q4 -15 4 -30q-1 -30 -17 -57q-24 -41 -71 -53q-15 -4 -30 -4q-30 0 -57 16q-41 24 -53 71l-64 255h-273l-71 -257q-10 -38 -41 -61.5t-70 -23.5q-18 0 -31 4q-45 13 -69 54q-15 26 -16 55
q0 16 5 33zM463 573h152l-72 289z" />
    <glyph glyph-name="B" unicode="B" horiz-adv-x="991" 
d="M102 115v1201q0 48 34 82t82 34h206q169 0 289 -122t120 -294q0 -158 -102 -274q73 -58 115 -144t42 -183q0 -172 -120 -293.5t-290 -121.5h-260q-48 0 -82 33.5t-34 81.5zM333 231h145q74 0 126.5 54t52.5 131q0 76 -52.5 130t-126.5 54l-145 1v-370zM333 832h91
q74 0 126 53.5t52 130.5t-52 131t-126 54h-91v-369z" />
    <glyph glyph-name="C" unicode="C" 
d="M102 369v693q0 153 109 261t262 108h2q153 0 261.5 -108t108.5 -261q0 -48 -34 -82t-82 -34t-81.5 34t-33.5 82q0 57 -40.5 97.5t-98.5 40.5h-2q-58 0 -99 -40.5t-41 -97.5v-693q0 -57 41 -98t99 -41h2q58 0 98.5 41t40.5 98q0 48 33.5 81.5t81.5 33.5t82 -33.5t34 -81.5
q0 -153 -108.5 -261.5t-261.5 -108.5h-2q-153 0 -262 108.5t-109 261.5z" />
    <glyph glyph-name="D" unicode="D" 
d="M102 115v1201q0 48 34 82t82 34h276q145 0 248 -103t103 -248v-730q0 -145 -103 -248t-248 -103h-276q-48 0 -82 33.5t-34 81.5zM333 231h161q50 0 85 35.5t35 84.5v730q0 49 -35 84.5t-85 35.5h-161v-970z" />
    <glyph glyph-name="E" unicode="E" horiz-adv-x="827" 
d="M102 115v1201q0 48 34 82t82 34h390q48 0 82 -34t34 -82t-34 -81.5t-82 -33.5h-275v-374h168q48 0 81.5 -34t33.5 -82t-33.5 -81.5t-81.5 -33.5h-168v-365h261q48 0 81.5 -34t33.5 -82t-33.5 -81.5t-81.5 -33.5h-376q-48 0 -82 33.5t-34 81.5z" />
    <glyph glyph-name="E" unicode="&#xca;" horiz-adv-x="827" 
d="M102 115v1201q0 48 34 82t82 34h390q48 0 82 -34t34 -82t-34 -81.5t-82 -33.5h-275v-374h168q48 0 81.5 -34t33.5 -82t-33.5 -81.5t-81.5 -33.5h-168v-365h261q48 0 81.5 -34t33.5 -82t-33.5 -81.5t-81.5 -33.5h-376q-48 0 -82 33.5t-34 81.5z" />
    <glyph glyph-name="E" unicode="&#xc9;" horiz-adv-x="827" 
d="M102 115v1201q0 48 34 82t82 34h390q48 0 82 -34t34 -82t-34 -81.5t-82 -33.5h-275v-374h168q48 0 81.5 -34t33.5 -82t-33.5 -81.5t-81.5 -33.5h-168v-365h261q48 0 81.5 -34t33.5 -82t-33.5 -81.5t-81.5 -33.5h-376q-48 0 -82 33.5t-34 81.5z" />
    <glyph glyph-name="E" unicode="&#xc8;" horiz-adv-x="827" 
d="M102 115v1201q0 48 34 82t82 34h390q48 0 82 -34t34 -82t-34 -81.5t-82 -33.5h-275v-374h168q48 0 81.5 -34t33.5 -82t-33.5 -81.5t-81.5 -33.5h-168v-365h261q48 0 81.5 -34t33.5 -82t-33.5 -81.5t-81.5 -33.5h-376q-48 0 -82 33.5t-34 81.5z" />
    <glyph glyph-name="F" unicode="F" horiz-adv-x="827" 
d="M102 115v1201q0 48 34 82t82 34h390q48 0 82 -34t34 -82t-34 -81.5t-82 -33.5h-275v-374h168q48 0 81.5 -34t33.5 -82t-33.5 -81.5t-81.5 -33.5h-168v-481q0 -48 -33.5 -81.5t-81.5 -33.5t-82 33.5t-34 81.5z" />
    <glyph glyph-name="G" unicode="G" 
d="M102 370v691q0 153 109 261.5t263 108.5t262.5 -108.5t108.5 -261.5q0 -48 -34 -82t-82 -34t-81.5 34t-33.5 82q0 58 -41 98.5t-99 40.5t-99.5 -40.5t-41.5 -98.5v-691q0 -58 41.5 -99t99.5 -41t99 41t41 99v196h-40q-48 0 -82 33.5t-34 81.5t34 82t82 34h155
q48 0 82 -34t34 -82v-311q0 -153 -108.5 -262t-262.5 -109t-263 109t-109 262z" />
    <glyph glyph-name="H" unicode="H" horiz-adv-x="968" 
d="M102 115v1201q0 48 34 82t82 34t81.5 -34t33.5 -82v-489h301v489q0 48 33.5 82t81.5 34t82 -34t34 -82v-1201q0 -48 -34 -81.5t-82 -33.5t-81.5 33.5t-33.5 81.5v481h-301v-481q0 -48 -33.5 -81.5t-81.5 -33.5t-82 33.5t-34 81.5z" />
    <glyph glyph-name="I" unicode="I" horiz-adv-x="436" 
d="M102 115v1201q0 48 34 82t82 34t81.5 -34t33.5 -82v-1201q0 -48 -33.5 -81.5t-81.5 -33.5t-82 33.5t-34 81.5z" />
    <glyph glyph-name="I" unicode="&#xce;" horiz-adv-x="436" 
d="M102 115v1201q0 48 34 82t82 34t81.5 -34t33.5 -82v-1201q0 -48 -33.5 -81.5t-81.5 -33.5t-82 33.5t-34 81.5z" />
    <glyph glyph-name="I" unicode="&#xcd;" horiz-adv-x="436" 
d="M102 115v1201q0 48 34 82t82 34t81.5 -34t33.5 -82v-1201q0 -48 -33.5 -81.5t-81.5 -33.5t-82 33.5t-34 81.5z" />
    <glyph glyph-name="I" unicode="&#xcc;" horiz-adv-x="436" 
d="M102 115v1201q0 48 34 82t82 34t81.5 -34t33.5 -82v-1201q0 -48 -33.5 -81.5t-81.5 -33.5t-82 33.5t-34 81.5z" />
    <glyph glyph-name="J" unicode="J" horiz-adv-x="886" 
d="M41 370q0 48 33.5 81.5t81.5 33.5t82 -33.5t34 -81.5q0 -58 40.5 -98.5t98.5 -40.5h3q58 0 98.5 40.5t40.5 98.5v946q0 48 33.5 82t81.5 34t81.5 -34t33.5 -82v-946q0 -153 -108 -261.5t-261 -108.5h-3q-153 0 -261.5 108.5t-108.5 261.5z" />
    <glyph glyph-name="K" unicode="K" horiz-adv-x="997" 
d="M102 115v1201q0 48 34 82t82 34t81.5 -34t33.5 -82v-461l347 523q26 40 73 49q12 2 24 2q34 0 63 -19q40 -26 50 -73q3 -13 2 -25q0 -33 -19 -62l-302 -455l311 -626q12 -25 12 -51q0 -20 -6 -38q-15 -46 -58 -66q-26 -12 -51 -12q-32 0 -60 17t-43 47l-253 507l-90 -136
v-322q0 -48 -33.5 -81.5t-81.5 -33.5t-82 33.5t-34 81.5z" />
    <glyph glyph-name="L" unicode="L" horiz-adv-x="804" 
d="M102 121v1195q0 48 34 82t82 34t81.5 -34t33.5 -82v-1085h254q48 0 81.5 -33.5t33.5 -81.5t-33.5 -82t-81.5 -34h-365q-65 0 -99 56q-21 31 -21 65z" />
    <glyph glyph-name="M" unicode="M" horiz-adv-x="1222" 
d="M102 115v1201q0 41 25 72.5t64 40.5q14 3 27 3q24 0 48 -11q36 -17 55 -53l290 -580l289 580q18 36 54 53q24 11 49 11q13 0 27 -3q39 -9 64 -40.5t25 -72.5v-1200q0 -48 -34 -82t-82 -34t-81.5 34t-33.5 82v710l-174 -348q-15 -29 -43 -46.5t-61 -17.5t-60.5 17.5
t-42.5 46.5l-174 348v-711q0 -48 -33.5 -81.5t-81.5 -33.5t-82 33.5t-34 81.5z" />
    <glyph glyph-name="N" unicode="N" horiz-adv-x="968" 
d="M102 115v1201q0 41 26 73t66 40q12 2 24 2q26 -1 52 -13q36 -18 53 -55l311 -702v655q0 48 34 82t82 34t81.5 -34t33.5 -82v-1200q0 -41 -25.5 -73t-65.5 -40q-12 -3 -24 -3q-34 0 -63 19t-43 50l-311 702v-656q0 -48 -33.5 -81.5t-81.5 -33.5t-82 33.5t-34 81.5z" />
    <glyph glyph-name="O" unicode="O" 
d="M102 368v694q0 152 108.5 260.5t260.5 108.5h5q152 0 260.5 -108.5t108.5 -260.5v-694q0 -152 -108.5 -260.5t-260.5 -108.5h-5q-152 0 -260.5 108.5t-108.5 260.5zM333 368q0 -57 40.5 -97.5t97.5 -40.5h5q57 0 97.5 40.5t40.5 97.5v694q0 57 -40.5 97.5t-97.5 40.5h-5
q-57 0 -97.5 -40.5t-40.5 -97.5v-694z" />
    <glyph glyph-name="O" unicode="&#xd5;" 
d="M102 368v694q0 152 108.5 260.5t260.5 108.5h5q152 0 260.5 -108.5t108.5 -260.5v-694q0 -152 -108.5 -260.5t-260.5 -108.5h-5q-152 0 -260.5 108.5t-108.5 260.5zM333 368q0 -57 40.5 -97.5t97.5 -40.5h5q57 0 97.5 40.5t40.5 97.5v694q0 57 -40.5 97.5t-97.5 40.5h-5
q-57 0 -97.5 -40.5t-40.5 -97.5v-694z" />
    <glyph glyph-name="O" unicode="&#xd4;" 
d="M102 368v694q0 152 108.5 260.5t260.5 108.5h5q152 0 260.5 -108.5t108.5 -260.5v-694q0 -152 -108.5 -260.5t-260.5 -108.5h-5q-152 0 -260.5 108.5t-108.5 260.5zM333 368q0 -57 40.5 -97.5t97.5 -40.5h5q57 0 97.5 40.5t40.5 97.5v694q0 57 -40.5 97.5t-97.5 40.5h-5
q-57 0 -97.5 -40.5t-40.5 -97.5v-694z" />
    <glyph glyph-name="O" unicode="&#xd3;" 
d="M102 368v694q0 152 108.5 260.5t260.5 108.5h5q152 0 260.5 -108.5t108.5 -260.5v-694q0 -152 -108.5 -260.5t-260.5 -108.5h-5q-152 0 -260.5 108.5t-108.5 260.5zM333 368q0 -57 40.5 -97.5t97.5 -40.5h5q57 0 97.5 40.5t40.5 97.5v694q0 57 -40.5 97.5t-97.5 40.5h-5
q-57 0 -97.5 -40.5t-40.5 -97.5v-694z" />
    <glyph glyph-name="O" unicode="&#xd2;" 
d="M102 368v694q0 152 108.5 260.5t260.5 108.5h5q152 0 260.5 -108.5t108.5 -260.5v-694q0 -152 -108.5 -260.5t-260.5 -108.5h-5q-152 0 -260.5 108.5t-108.5 260.5zM333 368q0 -57 40.5 -97.5t97.5 -40.5h5q57 0 97.5 40.5t40.5 97.5v694q0 57 -40.5 97.5t-97.5 40.5h-5
q-57 0 -97.5 -40.5t-40.5 -97.5v-694z" />
    <glyph glyph-name="P" unicode="P" horiz-adv-x="946" 
d="M102 115v1201q0 48 34 82t82 34h210q172 0 293.5 -122t121.5 -294t-121.5 -293.5t-293.5 -121.5h-95v-486q0 -48 -33.5 -81.5t-81.5 -33.5t-82 33.5t-34 81.5zM333 832h95q76 0 130 54t54 130q0 77 -54 131t-130 54h-95v-369z" />
    <glyph glyph-name="Q" unicode="Q" horiz-adv-x="1040" 
d="M102 372v693q0 153 108.5 261t261.5 108h3q153 0 261.5 -108t108.5 -261v-693q0 -51 -14 -101l74 -75q34 -34 34 -81t-34 -81t-81 -34q-49 0 -82 34l-44 44q-99 -75 -223 -75h-3q-153 0 -261.5 108t-108.5 261zM333 372q0 -58 40.5 -98.5t98.5 -40.5h3q58 0 98.5 40.5
t40.5 98.5v693q0 58 -40.5 98.5t-98.5 40.5h-3q-58 0 -98.5 -40.5t-40.5 -98.5v-693z" />
    <glyph glyph-name="R" unicode="R" horiz-adv-x="1001" 
d="M102 116v1200q0 48 34 82t82 34h210q172 0 293.5 -122t121.5 -294q0 -105 -49.5 -196t-133.5 -148l229 -509q10 -23 10 -47q0 -22 -8 -42q-17 -44 -61 -64q-21 -10 -47 -10q-34 0 -62.5 18t-42.5 50l-239 533h-11h-95v-485q0 -48 -33.5 -82t-81.5 -34t-82 34t-34 82z
M333 832h95q76 0 130 54t54 130q0 77 -54 131t-130 54h-95v-369z" />
    <glyph glyph-name="S" unicode="S" horiz-adv-x="962" 
d="M103 406q2 48 37 80q33 31 77 30h5q48 -2 80 -37q31 -33 30 -77v-5v-8q0 -39 18 -75q20 -40 55 -63q33 -21 75 -21h9q47 2 82 30t51 78q8 27 9 52q0 21 -6 42q-9 31 -28.5 60t-55 60t-58.5 47.5t-71 50.5q-36 25 -60 43t-66.5 57t-70.5 75t-54 88.5t-35 107.5
q-5 30 -5 59q-1 75 31 148q44 101 133 160q88 58 196 59q2 0 4 -1q110 -1 198 -62q75 -52 117 -138q39 -80 39 -169v-13q-2 -47 -36 -79q-33 -31 -79 -31h-3q-47 0 -80 36q-31 33 -31 78v5v8q0 31 -14 61q-16 34 -44 53q-30 21 -70 21q-1 0 -1 1q-38 0 -69 -20
q-32 -21 -49 -61q-13 -30 -13 -59q0 -10 2 -20q9 -57 59 -108.5t133 -110.5q46 -32 72 -51t68.5 -55.5t69 -68.5t52.5 -77t40 -93q14 -51 14 -103q0 -62 -20 -124q-37 -115 -127 -186q-103 -80 -233 -80q-108 0 -198 57q-86 55 -134 149q-45 87 -45 184v16z" />
    <glyph glyph-name="T" unicode="T" horiz-adv-x="950" 
d="M-61 1316q0 48 33.5 82t81.5 34h676q48 0 82 -34t34 -82t-34 -81.5t-82 -33.5h-225v-1086q0 -48 -34 -81.5t-82 -33.5t-81.5 33.5t-33.5 81.5v1086h-220q-48 0 -81.5 33.5t-33.5 81.5z" />
    <glyph glyph-name="U" unicode="U" 
d="M102 371v945q0 48 34 82t82 34t81.5 -34t33.5 -82v-945q0 -58 41.5 -99t99.5 -41t99 41t41 99v945q0 48 33.5 82t81.5 34t82 -34t34 -82v-945q0 -154 -108.5 -262.5t-262.5 -108.5t-263 108.5t-109 262.5z" />
    <glyph glyph-name="U" unicode="&#xda;" 
d="M102 371v945q0 48 34 82t82 34t81.5 -34t33.5 -82v-945q0 -58 41.5 -99t99.5 -41t99 41t41 99v945q0 48 33.5 82t81.5 34t82 -34t34 -82v-945q0 -154 -108.5 -262.5t-262.5 -108.5t-263 108.5t-109 262.5z" />
    <glyph glyph-name="U" unicode="&#xd9;" 
d="M102 371v945q0 48 34 82t82 34t81.5 -34t33.5 -82v-945q0 -58 41.5 -99t99.5 -41t99 41t41 99v945q0 48 33.5 82t81.5 34t82 -34t34 -82v-945q0 -154 -108.5 -262.5t-262.5 -108.5t-263 108.5t-109 262.5z" />
    <glyph glyph-name="V" unicode="V" horiz-adv-x="1067" 
d="M106 1288q-4 15 -4 30q0 30 16 57q24 41 72 53q15 4 30 4q30 0 57 -16q41 -24 53 -72l194 -775l213 777q13 46 55 70q27 16 55 16q16 0 32 -5q46 -13 70 -55q16 -27 16 -55q0 -16 -5 -32l-329 -1201q-11 -38 -42 -61.5t-70 -23.5h-1q-39 1 -70 25.5t-41 62.5z" />
    <glyph glyph-name="W" unicode="W" horiz-adv-x="1222" 
d="M102 115v1201q0 48 34 81.5t82 33.5t81.5 -33.5t33.5 -81.5v-837l183 259q35 49 95 49q59 0 94 -49l183 -259v837q0 48 33.5 81.5t81.5 33.5t82 -33.5t34 -81.5v-1201q0 -38 -22.5 -68.5t-58.5 -41.5q-17 -6 -35 -6q-59 0 -94 49l-299 423l-298 -423q-22 -30 -58 -42
q-18 -6 -36 -6q-17 0 -35 5q-36 11 -58.5 41.5t-22.5 68.5z" />
    <glyph glyph-name="X" unicode="X" horiz-adv-x="1036" 
d="M108 79q-6 18 -6 36q0 26 13 52l274 549l-274 549q-13 26 -13 52q0 18 6 36q15 45 58 67q25 13 51 13q18 -1 37 -7q45 -16 67 -58l197 -394l197 394q22 42 67 58q19 6 37 7q26 0 51 -13q42 -22 58 -67q6 -19 7 -37q0 -26 -13 -51l-275 -549l275 -549q13 -25 13 -51
q-1 -18 -7 -37q-16 -45 -58 -67q-26 -12 -52 -12q-32 0 -60 17t-43 47l-197 394l-197 -394q-15 -30 -43 -47t-60 -17q-26 0 -52 12q-43 22 -58 67z" />
    <glyph glyph-name="Y" unicode="Y" horiz-adv-x="1005" 
d="M4 1348q13 46 55 69q27 15 56 15q16 0 32 -4q46 -13 69 -55l235 -420l235 420q23 42 69 55q16 4 32 4q29 0 56 -15q42 -23 55 -69q4 -16 4 -32q0 -29 -15 -56l-321 -574v-570q0 -48 -33.5 -82t-81.5 -34t-82 34t-34 82v570l-320 574q-15 27 -15 56q0 16 4 32z" />
    <glyph glyph-name="Z" unicode="Z" horiz-adv-x="968" 
d="M102 1316q0 48 34 82t82 34h531q64 0 97 -52q20 -31 20 -63q0 -23 -11 -47l-460 -1039h354q48 0 82 -34t34 -82t-34 -81.5t-82 -33.5h-531q-64 0 -97 52q-20 31 -20 63q0 23 11 47l460 1039h-354q-48 0 -82 33.5t-34 81.5z" />
    <glyph glyph-name="a" unicode="a" horiz-adv-x="1067" 
d="M107 146l329 1201q11 38 42 61.5t70 23.5h1q39 -1 70 -25t41 -62l301 -1201q4 -15 4 -30q-1 -30 -17 -57q-24 -41 -71 -53q-15 -4 -30 -4q-30 0 -57 16q-41 24 -53 71l-64 255h-273l-71 -257q-10 -38 -41 -61.5t-70 -23.5q-18 0 -31 4q-45 13 -69 54q-15 26 -16 55
q0 16 5 33zM463 573h152l-72 289z" />
    <glyph glyph-name="a" unicode="&#xe4;" horiz-adv-x="1067" 
d="M107 146l329 1201q11 38 42 61.5t70 23.5h1q39 -1 70 -25t41 -62l301 -1201q4 -15 4 -30q-1 -30 -17 -57q-24 -41 -71 -53q-15 -4 -30 -4q-30 0 -57 16q-41 24 -53 71l-64 255h-273l-71 -257q-10 -38 -41 -61.5t-70 -23.5q-18 0 -31 4q-45 13 -69 54q-15 26 -16 55
q0 16 5 33zM463 573h152l-72 289z" />
    <glyph glyph-name="a" unicode="&#xe3;" horiz-adv-x="1067" 
d="M107 146l329 1201q11 38 42 61.5t70 23.5h1q39 -1 70 -25t41 -62l301 -1201q4 -15 4 -30q-1 -30 -17 -57q-24 -41 -71 -53q-15 -4 -30 -4q-30 0 -57 16q-41 24 -53 71l-64 255h-273l-71 -257q-10 -38 -41 -61.5t-70 -23.5q-18 0 -31 4q-45 13 -69 54q-15 26 -16 55
q0 16 5 33zM463 573h152l-72 289z" />
    <glyph glyph-name="a" unicode="&#xe2;" horiz-adv-x="1067" 
d="M107 146l329 1201q11 38 42 61.5t70 23.5h1q39 -1 70 -25t41 -62l301 -1201q4 -15 4 -30q-1 -30 -17 -57q-24 -41 -71 -53q-15 -4 -30 -4q-30 0 -57 16q-41 24 -53 71l-64 255h-273l-71 -257q-10 -38 -41 -61.5t-70 -23.5q-18 0 -31 4q-45 13 -69 54q-15 26 -16 55
q0 16 5 33zM463 573h152l-72 289z" />
    <glyph glyph-name="a" unicode="&#xe1;" horiz-adv-x="1067" 
d="M107 146l329 1201q11 38 42 61.5t70 23.5h1q39 -1 70 -25t41 -62l301 -1201q4 -15 4 -30q-1 -30 -17 -57q-24 -41 -71 -53q-15 -4 -30 -4q-30 0 -57 16q-41 24 -53 71l-64 255h-273l-71 -257q-10 -38 -41 -61.5t-70 -23.5q-18 0 -31 4q-45 13 -69 54q-15 26 -16 55
q0 16 5 33zM463 573h152l-72 289z" />
    <glyph glyph-name="a" unicode="&#xe0;" horiz-adv-x="1067" 
d="M107 146l329 1201q11 38 42 61.5t70 23.5h1q39 -1 70 -25t41 -62l301 -1201q4 -15 4 -30q-1 -30 -17 -57q-24 -41 -71 -53q-15 -4 -30 -4q-30 0 -57 16q-41 24 -53 71l-64 255h-273l-71 -257q-10 -38 -41 -61.5t-70 -23.5q-18 0 -31 4q-45 13 -69 54q-15 26 -16 55
q0 16 5 33zM463 573h152l-72 289z" />
    <glyph glyph-name="b" unicode="b" horiz-adv-x="950" 
d="M102 115v1201q0 48 34 82t82 34h206q169 0 289 -122t120 -294q0 -158 -102 -274q73 -58 115 -144t42 -183q0 -172 -120 -293.5t-290 -121.5h-260q-48 0 -82 33.5t-34 81.5zM333 231h145q74 0 126.5 54t52.5 131q0 76 -52.5 130t-126.5 54l-145 1v-370zM333 832h91
q74 0 126 53.5t52 130.5t-52 131t-126 54h-91v-369z" />
    <glyph glyph-name="c" unicode="c" 
d="M102 369v693q0 153 109 261t262 108h2q153 0 261.5 -108t108.5 -261q0 -48 -34 -82t-82 -34t-81.5 34t-33.5 82q0 57 -40.5 97.5t-98.5 40.5h-2q-58 0 -99 -40.5t-41 -97.5v-693q0 -57 41 -98t99 -41h2q58 0 98.5 41t40.5 98q0 48 33.5 81.5t81.5 33.5t82 -33.5t34 -81.5
q0 -153 -108.5 -261.5t-261.5 -108.5h-2q-153 0 -262 108.5t-109 261.5z" />
    <glyph glyph-name="d" unicode="d" 
d="M102 115v1201q0 48 34 82t82 34h276q145 0 248 -103t103 -248v-730q0 -145 -103 -248t-248 -103h-276q-48 0 -82 33.5t-34 81.5zM333 231h161q50 0 85 35.5t35 84.5v730q0 49 -35 84.5t-85 35.5h-161v-970z" />
    <glyph glyph-name="e" unicode="e" horiz-adv-x="786" 
d="M102 115v1201q0 48 34 82t82 34h390q48 0 82 -34t34 -82t-34 -81.5t-82 -33.5h-275v-374h168q48 0 81.5 -34t33.5 -82t-33.5 -81.5t-81.5 -33.5h-168v-365h261q48 0 81.5 -34t33.5 -82t-33.5 -81.5t-81.5 -33.5h-376q-48 0 -82 33.5t-34 81.5z" />
    <glyph glyph-name="e" unicode="&#xea;" horiz-adv-x="786" 
d="M102 115v1201q0 48 34 82t82 34h390q48 0 82 -34t34 -82t-34 -81.5t-82 -33.5h-275v-374h168q48 0 81.5 -34t33.5 -82t-33.5 -81.5t-81.5 -33.5h-168v-365h261q48 0 81.5 -34t33.5 -82t-33.5 -81.5t-81.5 -33.5h-376q-48 0 -82 33.5t-34 81.5z" />
    <glyph glyph-name="e" unicode="&#xe9;" horiz-adv-x="786" 
d="M102 115v1201q0 48 34 82t82 34h390q48 0 82 -34t34 -82t-34 -81.5t-82 -33.5h-275v-374h168q48 0 81.5 -34t33.5 -82t-33.5 -81.5t-81.5 -33.5h-168v-365h261q48 0 81.5 -34t33.5 -82t-33.5 -81.5t-81.5 -33.5h-376q-48 0 -82 33.5t-34 81.5z" />
    <glyph glyph-name="e" unicode="&#xe8;" horiz-adv-x="786" 
d="M102 115v1201q0 48 34 82t82 34h390q48 0 82 -34t34 -82t-34 -81.5t-82 -33.5h-275v-374h168q48 0 81.5 -34t33.5 -82t-33.5 -81.5t-81.5 -33.5h-168v-365h261q48 0 81.5 -34t33.5 -82t-33.5 -81.5t-81.5 -33.5h-376q-48 0 -82 33.5t-34 81.5z" />
    <glyph glyph-name="f" unicode="f" horiz-adv-x="827" 
d="M102 115v1201q0 48 34 82t82 34h390q48 0 82 -34t34 -82t-34 -81.5t-82 -33.5h-275v-374h168q48 0 81.5 -34t33.5 -82t-33.5 -81.5t-81.5 -33.5h-168v-481q0 -48 -33.5 -81.5t-81.5 -33.5t-82 33.5t-34 81.5z" />
    <glyph glyph-name="g" unicode="g" 
d="M102 370v691q0 153 109 261.5t263 108.5t262.5 -108.5t108.5 -261.5q0 -48 -34 -82t-82 -34t-81.5 34t-33.5 82q0 58 -41 98.5t-99 40.5t-99.5 -40.5t-41.5 -98.5v-691q0 -58 41.5 -99t99.5 -41t99 41t41 99v196h-40q-48 0 -82 33.5t-34 81.5t34 82t82 34h155
q48 0 82 -34t34 -82v-311q0 -153 -108.5 -262t-262.5 -109t-263 109t-109 262z" />
    <glyph glyph-name="h" unicode="h" horiz-adv-x="968" 
d="M102 115v1201q0 48 34 82t82 34t81.5 -34t33.5 -82v-489h301v489q0 48 33.5 82t81.5 34t82 -34t34 -82v-1201q0 -48 -34 -81.5t-82 -33.5t-81.5 33.5t-33.5 81.5v481h-301v-481q0 -48 -33.5 -81.5t-81.5 -33.5t-82 33.5t-34 81.5z" />
    <glyph glyph-name="i" unicode="i" horiz-adv-x="436" 
d="M102 115v1201q0 48 34 82t82 34t81.5 -34t33.5 -82v-1201q0 -48 -33.5 -81.5t-81.5 -33.5t-82 33.5t-34 81.5z" />
    <glyph glyph-name="i" unicode="&#xee;" horiz-adv-x="436" 
d="M102 115v1201q0 48 34 82t82 34t81.5 -34t33.5 -82v-1201q0 -48 -33.5 -81.5t-81.5 -33.5t-82 33.5t-34 81.5z" />
    <glyph glyph-name="i" unicode="&#xed;" horiz-adv-x="436" 
d="M102 115v1201q0 48 34 82t82 34t81.5 -34t33.5 -82v-1201q0 -48 -33.5 -81.5t-81.5 -33.5t-82 33.5t-34 81.5z" />
    <glyph glyph-name="i" unicode="&#xec;" horiz-adv-x="436" 
d="M102 115v1201q0 48 34 82t82 34t81.5 -34t33.5 -82v-1201q0 -48 -33.5 -81.5t-81.5 -33.5t-82 33.5t-34 81.5z" />
    <glyph glyph-name="j" unicode="j" 
d="M102 370q0 48 34 81.5t82 33.5t81.5 -33.5t33.5 -81.5q0 -58 40.5 -98.5t98.5 -40.5h3q58 0 98.5 40.5t40.5 98.5v946q0 48 33.5 82t81.5 34t82 -34t34 -82v-946q0 -153 -108.5 -261.5t-261.5 -108.5h-3q-153 0 -261.5 108.5t-108.5 261.5z" />
    <glyph glyph-name="k" unicode="k" horiz-adv-x="997" 
d="M102 115v1201q0 48 34 82t82 34t81.5 -34t33.5 -82v-461l347 523q26 40 73 49q12 2 24 2q34 0 63 -19q40 -26 50 -73q3 -13 2 -25q0 -33 -19 -62l-302 -455l311 -626q12 -25 12 -51q0 -20 -6 -38q-15 -46 -58 -66q-26 -12 -51 -12q-32 0 -60 17t-43 47l-253 507l-90 -136
v-322q0 -48 -33.5 -81.5t-81.5 -33.5t-82 33.5t-34 81.5z" />
    <glyph glyph-name="l" unicode="l" horiz-adv-x="804" 
d="M102 121v1195q0 48 34 82t82 34t81.5 -34t33.5 -82v-1085h254q48 0 81.5 -33.5t33.5 -81.5t-33.5 -82t-81.5 -34h-365q-65 0 -99 56q-21 31 -21 65z" />
    <glyph glyph-name="m" unicode="m" horiz-adv-x="1222" 
d="M102 115v1201q0 41 25 72.5t64 40.5q14 3 27 3q24 0 48 -11q36 -17 55 -53l290 -580l289 580q18 36 54 53q24 11 49 11q13 0 27 -3q39 -9 64 -40.5t25 -72.5v-1200q0 -48 -34 -82t-82 -34t-81.5 34t-33.5 82v710l-174 -348q-15 -29 -43 -46.5t-61 -17.5t-60.5 17.5
t-42.5 46.5l-174 348v-711q0 -48 -33.5 -81.5t-81.5 -33.5t-82 33.5t-34 81.5z" />
    <glyph glyph-name="n" unicode="n" horiz-adv-x="968" 
d="M102 115v1201q0 41 26 73t66 40q12 2 24 2q26 -1 52 -13q36 -18 53 -55l311 -702v655q0 48 34 82t82 34t81.5 -34t33.5 -82v-1200q0 -41 -25.5 -73t-65.5 -40q-12 -3 -24 -3q-34 0 -63 19t-43 50l-311 702v-656q0 -48 -33.5 -81.5t-81.5 -33.5t-82 33.5t-34 81.5z" />
    <glyph glyph-name="o" unicode="o" 
d="M102 368v694q0 152 108.5 260.5t260.5 108.5h5q152 0 260.5 -108.5t108.5 -260.5v-694q0 -152 -108.5 -260.5t-260.5 -108.5h-5q-152 0 -260.5 108.5t-108.5 260.5zM333 368q0 -57 40.5 -97.5t97.5 -40.5h5q57 0 97.5 40.5t40.5 97.5v694q0 57 -40.5 97.5t-97.5 40.5h-5
q-57 0 -97.5 -40.5t-40.5 -97.5v-694z" />
    <glyph glyph-name="o" unicode="&#xf5;" 
d="M102 368v694q0 152 108.5 260.5t260.5 108.5h5q152 0 260.5 -108.5t108.5 -260.5v-694q0 -152 -108.5 -260.5t-260.5 -108.5h-5q-152 0 -260.5 108.5t-108.5 260.5zM333 368q0 -57 40.5 -97.5t97.5 -40.5h5q57 0 97.5 40.5t40.5 97.5v694q0 57 -40.5 97.5t-97.5 40.5h-5
q-57 0 -97.5 -40.5t-40.5 -97.5v-694z" />
    <glyph glyph-name="o" unicode="&#xf4;" 
d="M102 368v694q0 152 108.5 260.5t260.5 108.5h5q152 0 260.5 -108.5t108.5 -260.5v-694q0 -152 -108.5 -260.5t-260.5 -108.5h-5q-152 0 -260.5 108.5t-108.5 260.5zM333 368q0 -57 40.5 -97.5t97.5 -40.5h5q57 0 97.5 40.5t40.5 97.5v694q0 57 -40.5 97.5t-97.5 40.5h-5
q-57 0 -97.5 -40.5t-40.5 -97.5v-694z" />
    <glyph glyph-name="o" unicode="&#xf3;" 
d="M102 368v694q0 152 108.5 260.5t260.5 108.5h5q152 0 260.5 -108.5t108.5 -260.5v-694q0 -152 -108.5 -260.5t-260.5 -108.5h-5q-152 0 -260.5 108.5t-108.5 260.5zM333 368q0 -57 40.5 -97.5t97.5 -40.5h5q57 0 97.5 40.5t40.5 97.5v694q0 57 -40.5 97.5t-97.5 40.5h-5
q-57 0 -97.5 -40.5t-40.5 -97.5v-694z" />
    <glyph glyph-name="o" unicode="&#xf2;" 
d="M102 368v694q0 152 108.5 260.5t260.5 108.5h5q152 0 260.5 -108.5t108.5 -260.5v-694q0 -152 -108.5 -260.5t-260.5 -108.5h-5q-152 0 -260.5 108.5t-108.5 260.5zM333 368q0 -57 40.5 -97.5t97.5 -40.5h5q57 0 97.5 40.5t40.5 97.5v694q0 57 -40.5 97.5t-97.5 40.5h-5
q-57 0 -97.5 -40.5t-40.5 -97.5v-694z" />
    <glyph glyph-name="p" unicode="p" horiz-adv-x="905" 
d="M102 115v1201q0 48 34 82t82 34h210q172 0 293.5 -122t121.5 -294t-121.5 -293.5t-293.5 -121.5h-95v-486q0 -48 -33.5 -81.5t-81.5 -33.5t-82 33.5t-34 81.5zM333 832h95q76 0 130 54t54 130q0 77 -54 131t-130 54h-95v-369z" />
    <glyph glyph-name="q" unicode="q" horiz-adv-x="1040" 
d="M102 372v693q0 153 108.5 261t261.5 108h3q153 0 261.5 -108t108.5 -261v-693q0 -51 -14 -101l74 -75q34 -34 34 -81t-34 -81t-81 -34q-49 0 -82 34l-44 44q-99 -75 -223 -75h-3q-153 0 -261.5 108t-108.5 261zM333 372q0 -58 40.5 -98.5t98.5 -40.5h3q58 0 98.5 40.5
t40.5 98.5v693q0 58 -40.5 98.5t-98.5 40.5h-3q-58 0 -98.5 -40.5t-40.5 -98.5v-693z" />
    <glyph glyph-name="r" unicode="r" horiz-adv-x="919" 
d="M102 116v1200q0 48 34 82t82 34h210q172 0 293.5 -122t121.5 -294q0 -105 -49.5 -196t-133.5 -148l229 -509q10 -23 10 -47q0 -22 -8 -42q-17 -44 -61 -64q-21 -10 -47 -10q-34 0 -62.5 18t-42.5 50l-239 533h-11h-95v-485q0 -48 -33.5 -82t-81.5 -34t-82 34t-34 82z
M333 832h95q76 0 130 54t54 130q0 77 -54 131t-130 54h-95v-369z" />
    <glyph glyph-name="s" unicode="s" horiz-adv-x="962" 
d="M103 406q2 48 37 80q33 31 77 30h5q48 -2 80 -37q31 -33 30 -77v-5v-8q0 -39 18 -75q20 -40 55 -63q33 -21 75 -21h9q47 2 82 30t51 78q8 27 9 52q0 21 -6 42q-9 31 -28.5 60t-55 60t-58.5 47.5t-71 50.5q-36 25 -60 43t-66.5 57t-70.5 75t-54 88.5t-35 107.5
q-5 30 -5 59q-1 75 31 148q44 101 133 160q88 58 196 59q2 0 4 -1q110 -1 198 -62q75 -52 117 -138q39 -80 39 -169v-13q-2 -47 -36 -79q-33 -31 -79 -31h-3q-47 0 -80 36q-31 33 -31 78v5v8q0 31 -14 61q-16 34 -44 53q-30 21 -70 21q-1 0 -1 1q-38 0 -69 -20
q-32 -21 -49 -61q-13 -30 -13 -59q0 -10 2 -20q9 -57 59 -108.5t133 -110.5q46 -32 72 -51t68.5 -55.5t69 -68.5t52.5 -77t40 -93q14 -51 14 -103q0 -62 -20 -124q-37 -115 -127 -186q-103 -80 -233 -80q-108 0 -198 57q-86 55 -134 149q-45 87 -45 184v16z" />
    <glyph glyph-name="t" unicode="t" horiz-adv-x="1114" 
d="M102 1316q0 48 34 82t82 34h676q48 0 82 -34t34 -82t-34 -81.5t-82 -33.5h-226v-1086q0 -48 -33.5 -81.5t-81.5 -33.5t-82 33.5t-34 81.5v1086h-219q-48 0 -82 33.5t-34 81.5z" />
    <glyph glyph-name="u" unicode="u" 
d="M102 371v945q0 48 34 82t82 34t81.5 -34t33.5 -82v-945q0 -58 41.5 -99t99.5 -41t99 41t41 99v945q0 48 33.5 82t81.5 34t82 -34t34 -82v-945q0 -154 -108.5 -262.5t-262.5 -108.5t-263 108.5t-109 262.5z" />
    <glyph glyph-name="u" unicode="&#xfa;" 
d="M102 371v945q0 48 34 82t82 34t81.5 -34t33.5 -82v-945q0 -58 41.5 -99t99.5 -41t99 41t41 99v945q0 48 33.5 82t81.5 34t82 -34t34 -82v-945q0 -154 -108.5 -262.5t-262.5 -108.5t-263 108.5t-109 262.5z" />
    <glyph glyph-name="u" unicode="&#xf9;" 
d="M102 371v945q0 48 34 82t82 34t81.5 -34t33.5 -82v-945q0 -58 41.5 -99t99.5 -41t99 41t41 99v945q0 48 33.5 82t81.5 34t82 -34t34 -82v-945q0 -154 -108.5 -262.5t-262.5 -108.5t-263 108.5t-109 262.5z" />
    <glyph glyph-name="v" unicode="v" horiz-adv-x="1067" 
d="M106 1288q-4 15 -4 30q0 30 16 57q24 41 72 53q15 4 30 4q30 0 57 -16q41 -24 53 -72l194 -775l213 777q13 46 55 70q27 16 55 16q16 0 32 -5q46 -13 70 -55q16 -27 16 -55q0 -16 -5 -32l-329 -1201q-11 -38 -42 -61.5t-70 -23.5h-1q-39 1 -70 25.5t-41 62.5z" />
    <glyph glyph-name="w" unicode="w" horiz-adv-x="1222" 
d="M102 115v1201q0 48 34 81.5t82 33.5t81.5 -33.5t33.5 -81.5v-837l183 259q35 49 95 49q59 0 94 -49l183 -259v837q0 48 33.5 81.5t81.5 33.5t82 -33.5t34 -81.5v-1201q0 -38 -22.5 -68.5t-58.5 -41.5q-17 -6 -35 -6q-59 0 -94 49l-299 423l-298 -423q-22 -30 -58 -42
q-18 -6 -36 -6q-17 0 -35 5q-36 11 -58.5 41.5t-22.5 68.5z" />
    <glyph glyph-name="x" unicode="x" horiz-adv-x="1036" 
d="M108 79q-6 18 -6 36q0 26 13 52l274 549l-274 549q-13 26 -13 52q0 18 6 36q15 45 58 67q25 13 51 13q18 -1 37 -7q45 -16 67 -58l197 -394l197 394q22 42 67 58q19 6 37 7q26 0 51 -13q42 -22 58 -67q6 -19 7 -37q0 -26 -13 -51l-275 -549l275 -549q13 -25 13 -51
q-1 -18 -7 -37q-16 -45 -58 -67q-26 -12 -52 -12q-32 0 -60 17t-43 47l-197 394l-197 -394q-15 -30 -43 -47t-60 -17q-26 0 -52 12q-43 22 -58 67z" />
    <glyph glyph-name="y" unicode="y" horiz-adv-x="923" 
d="M25 1348q13 46 55 69q27 15 56 15q16 0 32 -4q46 -13 69 -55l234 -420l235 420q23 42 69 55q16 4 32 4q29 0 56 -15q42 -23 55 -69q5 -17 5 -33q0 -28 -15 -55l-321 -574v-570q0 -48 -34 -82t-82 -34t-81.5 34t-33.5 82v570l-321 574q-15 27 -15 55q0 16 5 33z" />
    <glyph glyph-name="y" unicode="&#xfd;" horiz-adv-x="923" 
d="M25 1348q13 46 55 69q27 15 56 15q16 0 32 -4q46 -13 69 -55l234 -420l235 420q23 42 69 55q16 4 32 4q29 0 56 -15q42 -23 55 -69q5 -17 5 -33q0 -28 -15 -55l-321 -574v-570q0 -48 -34 -82t-82 -34t-81.5 34t-33.5 82v570l-321 574q-15 27 -15 55q0 16 5 33z" />
    <glyph glyph-name="z" unicode="z" horiz-adv-x="968" 
d="M102 1316q0 48 34 82t82 34h531q64 0 97 -52q20 -31 20 -63q0 -23 -11 -47l-460 -1039h354q48 0 82 -34t34 -82t-34 -81.5t-82 -33.5h-531q-64 0 -97 52q-20 31 -20 63q0 23 11 47l460 1039h-354q-48 0 -82 33.5t-34 81.5z" />
    <glyph glyph-name="uni00A0" unicode="&#xa0;" horiz-adv-x="1222" 
 />
    <glyph glyph-name="uni00AD" unicode="&#xad;" horiz-adv-x="1222" 
 />
    <glyph glyph-name="Adieresis" unicode="&#xc4;" horiz-adv-x="1067" 
d="M107 146l329 1201q11 38 42 61.5t70 23.5h1q39 -1 70 -25t41 -62l301 -1201q12 -46 -12.5 -87t-71.5 -53q-46 -12 -87 12t-53 71l-64 255h-273l-71 -257q-10 -38 -41 -61.5t-70 -23.5q-18 0 -31 4q-46 13 -69.5 54t-10.5 88zM225 1636v1q0 48 33.5 82t81.5 34t82 -34
t34 -82v-1q0 -48 -34 -81.5t-82 -33.5t-81.5 33.5t-33.5 81.5zM463 573h152l-72 289zM611 1636v1q0 48 34 82t82 34t81.5 -34t33.5 -82v-1q0 -48 -33.5 -81.5t-81.5 -33.5t-82 33.5t-34 81.5z" />
    <glyph glyph-name="Ccedilla" unicode="&#xc7;" 
d="M102 377v693q0 153 109 261.5t262 108.5h2q153 0 261.5 -108.5t108.5 -261.5q0 -48 -34 -81.5t-82 -33.5t-81.5 33.5t-33.5 81.5q0 57 -40.5 98t-98.5 41h-2q-58 0 -99 -41t-41 -98v-693q0 -57 41 -97.5t99 -40.5h2q58 0 98.5 40.5t40.5 97.5q0 48 33.5 82t81.5 34
t82 -34t34 -82q0 -153 -108.5 -261t-261.5 -108h-2q-153 0 -262 108t-109 261zM351 -191q0 48 34 82t82 34t81.5 -34t33.5 -82v-1q0 -48 -33.5 -81.5t-81.5 -33.5t-82 33.5t-34 81.5v1z" />
    <glyph glyph-name="Odieresis" unicode="&#xd6;" 
d="M102 369v694q0 152 108.5 260.5t260.5 108.5h5q152 0 260.5 -108.5t108.5 -260.5v-694q0 -152 -108.5 -260.5t-260.5 -108.5h-5q-152 0 -260.5 108.5t-108.5 260.5zM165 1625v1q0 48 33.5 81.5t81.5 33.5t82 -33.5t34 -81.5v-1q0 -48 -34 -82t-82 -34t-81.5 34t-33.5 82z
M333 369q0 -57 40.5 -97.5t97.5 -40.5h5q57 0 97.5 40.5t40.5 97.5v694q0 57 -40.5 97.5t-97.5 40.5h-5q-57 0 -97.5 -40.5t-40.5 -97.5v-694zM551 1625v1q0 48 34 81.5t82 33.5t81.5 -33.5t33.5 -81.5v-1q0 -48 -33.5 -82t-81.5 -34t-82 34t-34 82z" />
    <glyph glyph-name="Udieresis" unicode="&#xdc;" 
d="M102 371v945q0 48 34 82t82 34t81.5 -34t33.5 -82v-945q0 -58 41.5 -99t99.5 -41t99 41t41 99v945q0 48 33.5 82t81.5 34t82 -34t34 -82v-945q0 -154 -108.5 -262.5t-262.5 -108.5t-263 108.5t-109 262.5zM165 1651v1q0 48 33.5 81.5t81.5 33.5t82 -33.5t34 -81.5v-1
q0 -48 -34 -82t-82 -34t-81.5 34t-33.5 82zM551 1651v1q0 48 34 81.5t82 33.5t81.5 -33.5t33.5 -81.5v-1q0 -48 -33.5 -82t-81.5 -34t-82 34t-34 82z" />
    <glyph glyph-name="ccedilla" unicode="&#xe7;" 
d="M102 377v693q0 153 109 261.5t262 108.5h2q153 0 261.5 -108.5t108.5 -261.5q0 -48 -34 -81.5t-82 -33.5t-81.5 33.5t-33.5 81.5q0 57 -40.5 98t-98.5 41h-2q-58 0 -99 -41t-41 -98v-693q0 -57 41 -97.5t99 -40.5h2q58 0 98.5 40.5t40.5 97.5q0 48 33.5 82t81.5 34
t82 -34t34 -82q0 -153 -108.5 -261t-261.5 -108h-2q-153 0 -262 108t-109 261zM351 -191q0 48 34 82t82 34t81.5 -34t33.5 -82v-1q0 -48 -33.5 -81.5t-81.5 -33.5t-82 33.5t-34 81.5v1z" />
    <glyph glyph-name="odieresis" unicode="&#xf6;" 
d="M102 369v694q0 152 108.5 260.5t260.5 108.5h5q152 0 260.5 -108.5t108.5 -260.5v-694q0 -152 -108.5 -260.5t-260.5 -108.5h-5q-152 0 -260.5 108.5t-108.5 260.5zM165 1625v1q0 48 33.5 81.5t81.5 33.5t82 -33.5t34 -81.5v-1q0 -48 -34 -82t-82 -34t-81.5 34t-33.5 82z
M333 369q0 -57 40.5 -97.5t97.5 -40.5h5q57 0 97.5 40.5t40.5 97.5v694q0 57 -40.5 97.5t-97.5 40.5h-5q-57 0 -97.5 -40.5t-40.5 -97.5v-694zM551 1625v1q0 48 34 81.5t82 33.5t81.5 -33.5t33.5 -81.5v-1q0 -48 -33.5 -82t-81.5 -34t-82 34t-34 82z" />
    <glyph glyph-name="udieresis" unicode="&#xfc;" 
d="M102 371v945q0 48 34 82t82 34t81.5 -34t33.5 -82v-945q0 -58 41.5 -99t99.5 -41t99 41t41 99v945q0 48 33.5 82t81.5 34t82 -34t34 -82v-945q0 -154 -108.5 -262.5t-262.5 -108.5t-263 108.5t-109 262.5zM165 1651v1q0 48 33.5 81.5t81.5 33.5t82 -33.5t34 -81.5v-1
q0 -48 -34 -82t-82 -34t-81.5 34t-33.5 82zM551 1651v1q0 48 34 81.5t82 33.5t81.5 -33.5t33.5 -81.5v-1q0 -48 -33.5 -82t-81.5 -34t-82 34t-34 82z" />
    <glyph glyph-name="uni2000" unicode="&#x2000;" horiz-adv-x="883" 
 />
    <glyph glyph-name="uni2001" unicode="&#x2001;" horiz-adv-x="1767" 
 />
    <glyph glyph-name="uni2002" unicode="&#x2002;" horiz-adv-x="883" 
 />
    <glyph glyph-name="uni2003" unicode="&#x2003;" horiz-adv-x="1767" 
 />
    <glyph glyph-name="uni2004" unicode="&#x2004;" horiz-adv-x="589" 
 />
    <glyph glyph-name="uni2005" unicode="&#x2005;" horiz-adv-x="441" 
 />
    <glyph glyph-name="uni2006" unicode="&#x2006;" horiz-adv-x="294" 
 />
    <glyph glyph-name="uni2007" unicode="&#x2007;" horiz-adv-x="294" 
 />
    <glyph glyph-name="uni2008" unicode="&#x2008;" horiz-adv-x="220" 
 />
    <glyph glyph-name="uni2009" unicode="&#x2009;" horiz-adv-x="353" 
 />
    <glyph glyph-name="uni200A" unicode="&#x200a;" horiz-adv-x="98" 
 />
    <glyph glyph-name="uni202F" unicode="&#x202f;" horiz-adv-x="353" 
 />
    <glyph glyph-name="uni205F" unicode="&#x205f;" horiz-adv-x="441" 
 />
    <glyph glyph-name="uni25FC" unicode="&#x25fc;" horiz-adv-x="1433" 
d="M0 0v1434h1434v-1434h-1434z" />
    </font>
</defs>
</svg>
